:FULLY-SPECIFIED
:FORCE-ALL-JOINTS-BE-3DOF
:DEGREES
136
root 7.69008 16.6804 -26.3289 -7.80064 13.0425 2.11526
lfemur -8.77497 14.2156 -18.6632
ltibia 33.4458 0 0
lfoot -16.2021 -6.04517 0
ltoes 19.4648 0 0
rfemur -81.51 -27.0425 34.3987
rtibia 78.0028 0 0
rfoot 9.37696 22.0423 0
rtoes -30.1229 0 0
lowerback 14.6094 -3.27898 -6.12941
upperback 4.56919 -5.17911 -0.303422
thorax -2.77383 -2.57632 3.92678
lowerneck -12.0281 -1.98652 -0.0563991
upperneck 0.726101 -2.75934 2.94624
head 2.37994 -1.27467 0.803659
lclavicle 3.53695e-14 1.32902e-14 0
lhumerus -38.5313 -22.7796 92.6397
lradius 48.9048 0 0
lwrist 11.3989 0 0
lhand 14.1376 8.62321 0
lfingers 7.12502 0 0
lthumb 38.9807 33.6654 0
rclavicle 3.53695e-14 1.32902e-14 0
rhumerus -46.5204 -13.8436 -61.2752
rradius 77.7063 0 0
rwrist -7.99777 0 0
rhand -11.1408 -31.6331 0
rfingers 7.12502 0 0
rthumb 14.7934 -213.794 0
137
root 7.65409 16.6594 -26.3179 -7.5614 13.6102 2.13516
lfemur -9.28406 14.7078 -18.5978
ltibia 33.8824 0 0
lfoot -16.3786 -5.58629 0
ltoes 18.1491 0 0
rfemur -81.9524 -27.3613 34.5128
rtibia 81.3148 0 0
rfoot 10.4177 22.0594 0
rtoes -29.8024 0 0
lowerback 14.5346 -3.45587 -6.27693
upperback 4.50861 -5.43362 -0.404051
thorax -2.76516 -2.70075 3.93614
lowerneck -11.9967 -2.05187 -0.164157
upperneck 0.658032 -2.83637 3.11361
head 2.35837 -1.30898 0.872663
lclavicle 4.00338e-14 1.23814e-14 0
lhumerus -38.2532 -23.5809 92.7187
lradius 48.6907 0 0
lwrist 11.185 0 0
lhand 14.9368 8.91435 0
lfingers 7.12502 0 0
lthumb 39.7315 33.7211 0
rclavicle 4.00338e-14 1.23814e-14 0
rhumerus -47.1678 -14.3172 -62.0154
rradius 78.8609 0 0
rwrist -7.85381 0 0
rhand -13.4727 -33.1729 0
rfingers 7.12502 0 0
rthumb 12.5504 -232.623 0
138
root 7.6181 16.6385 -26.307 -7.32216 14.1779 2.15506
lfemur -9.79314 15.1999 -18.5324
ltibia 34.319 0 0
lfoot -16.5551 -5.12741 0
ltoes 16.8333 0 0
rfemur -82.3948 -27.6801 34.6269
rtibia 84.6268 0 0
rfoot 11.4584 22.0765 0
rtoes -29.482 0 0
lowerback 14.4598 -3.63277 -6.42444
upperback 4.44803 -5.68812 -0.50468
thorax -2.7565 -2.82519 3.94549
lowerneck -11.9654 -2.11722 -0.271914
upperneck 0.589963 -2.9134 3.28098
head 2.3368 -1.34328 0.941668
lclavicle 4.46982e-14 1.14727e-14 0
lhumerus -37.9752 -24.3823 92.7976
lradius 48.4765 0 0
lwrist 10.9711 0 0
lhand 15.736 9.2055 0
lfingers 7.12502 0 0
lthumb 40.4824 33.7769 0
rclavicle 4.46982e-14 1.14727e-14 0
rhumerus -47.8152 -14.7909 -62.7555
rradius 80.0154 0 0
rwrist -7.70985 0 0
rhand -15.8045 -34.7126 0
rfingers 7.12502 0 0
rthumb 10.3074 -251.452 0
139
root 7.58211 16.6175 -26.296 -7.08292 14.7456 2.17496
lfemur -10.3022 15.6921 -18.467
ltibia 34.7556 0 0
lfoot -16.7316 -4.66853 0
ltoes 15.5176 0 0
rfemur -82.8372 -27.9989 34.741
rtibia 87.9388 0 0
rfoot 12.4992 22.0936 0
rtoes -29.1615 0 0
lowerback 14.385 -3.80966 -6.57196
upperback 4.38745 -5.94263 -0.605309
thorax -2.74783 -2.94962 3.95485
lowerneck -11.934 -2.18257 -0.379672
upperneck 0.521895 -2.99043 3.44835
head 2.31523 -1.37758 1.01067
lclavicle 4.93625e-14 1.0564e-14 0
lhumerus -37.6971 -25.1836 92.8766
lradius 48.2624 0 0
lwrist 10.7572 0 0
lhand 16.5351 9.49664 0
lfingers 7.12502 0 0
lthumb 41.2332 33.8326 0
rclavicle 4.93625e-14 1.0564e-14 0
rhumerus -48.4626 -15.2646 -63.4957
rradius 81.17 0 0
rwrist -7.56589 0 0
rhand -18.1364 -36.2524 0
rfingers 7.12502 0 0
rthumb 8.06441 -270.28 0
140
root 7.54612 16.5966 -26.285 -6.84368 15.3133 2.19486
lfemur -10.8113 16.1843 -18.4016
ltibia 35.1921 0 0
lfoot -16.908 -4.20965 0
ltoes 14.2019 0 0
rfemur -83.2797 -28.3177 34.8551
rtibia 91.2508 0 0
rfoot 13.5399 22.1107 0
rtoes -28.8411 0 0
lowerback 14.3102 -3.98656 -6.71947
upperback 4.32687 -6.19714 -0.705938
thorax -2.73917 -3.07406 3.96421
lowerneck -11.9027 -2.24792 -0.487429
upperneck 0.453826 -3.06746 3.61572
head 2.29367 -1.41188 1.07968
lclavicle 5.40269e-14 9.65524e-15 0
lhumerus -37.4191 -25.985 92.9555
lradius 48.0483 0 0
lwrist 10.5433 0 0
lhand 17.3343 9.78778 0
lfingers 7.12502 0 0
lthumb 41.984 33.8883 0
rclavicle 5.40269e-14 9.65524e-15 0
rhumerus -49.11 -15.7383 -64.2359
rradius 82.3246 0 0
rwrist -7.42192 0 0
rhand -20.4683 -37.7922 0
rfingers 7.12502 0 0
rthumb 5.82142 -289.109 0
141
root 7.51013 16.5756 -26.2741 -6.60444 15.881 2.21475
lfemur -11.3204 16.6765 -18.3362
ltibia 35.6287 0 0
lfoot -17.0845 -3.75077 0
ltoes 12.8861 0 0
rfemur -83.7221 -28.6365 34.9693
rtibia 94.5629 0 0
rfoot 14.5807 22.1279 0
rtoes -28.5206 0 0
lowerback 14.2355 -4.16345 -6.86699
upperback 4.26629 -6.45164 -0.806567
thorax -2.7305 -3.19849 3.97357
lowerneck -11.8714 -2.31326 -0.595187
upperneck 0.385757 -3.14449 3.78308
head 2.2721 -1.44618 1.14868
lclavicle 5.86912e-14 8.74651e-15 0
lhumerus -37.141 -26.7863 93.0345
lradius 47.8342 0 0
lwrist 10.3294 0 0
lhand 18.1335 10.0789 0
lfingers 7.12502 0 0
lthumb 42.7348 33.944 0
rclavicle 5.86912e-14 8.74651e-15 0
rhumerus -49.7575 -16.212 -64.9761
rradius 83.4791 0 0
rwrist -7.27796 0 0
rhand -22.8002 -39.332 0
rfingers 7.12502 0 0
rthumb 3.57843 -307.938 0
